<?xml version="1.0" standalone="no"?>
<!DOCTYPE svg PUBLIC "-//W3C//DTD SVG 1.1//EN" "http://www.w3.org/Graphics/SVG/1.1/DTD/svg11.dtd">
<svg xmlns="http://www.w3.org/2000/svg" version="1.1" width="297mm" height="210mm" >
<text fill="#00000"  x="158mm" y="50.4mm" font-family="'Futura-Medium'" font-size="48">#WEEKNOTES</text><text text-anchor="middle" fill="#00000" y="60mm" x="216mm" font-family="'Futura-Medium'" font-size="12">Q1 203-216 </text><line x1="12mm" x2="140mm" y1="12mm" y2="12mm" fill="none" stroke="#B2B2B2" stroke-width="0.25" stroke-miterlimit="10" /><line x1="12mm" x2="140mm" y1="23.647058823529mm" y2="23.647058823529mm" fill="none" stroke="#B2B2B2" stroke-width="0.25" stroke-miterlimit="10" /><line x1="12mm" x2="140mm" y1="35.294117647059mm" y2="35.294117647059mm" fill="none" stroke="#B2B2B2" stroke-width="0.25" stroke-miterlimit="10" /><line x1="12mm" x2="140mm" y1="46.941176470588mm" y2="46.941176470588mm" fill="none" stroke="#B2B2B2" stroke-width="0.25" stroke-miterlimit="10" /><line x1="12mm" x2="140mm" y1="58.588235294118mm" y2="58.588235294118mm" fill="none" stroke="#B2B2B2" stroke-width="0.25" stroke-miterlimit="10" /><line x1="12mm" x2="140mm" y1="70.235294117647mm" y2="70.235294117647mm" fill="none" stroke="#B2B2B2" stroke-width="0.25" stroke-miterlimit="10" /><line x1="12mm" x2="140mm" y1="81.882352941176mm" y2="81.882352941176mm" fill="none" stroke="#B2B2B2" stroke-width="0.25" stroke-miterlimit="10" /><line x1="12mm" x2="140mm" y1="93.529411764706mm" y2="93.529411764706mm" fill="none" stroke="#B2B2B2" stroke-width="0.25" stroke-miterlimit="10" /><line x1="12mm" x2="140mm" y1="105.17647058824mm" y2="105.17647058824mm" fill="none" stroke="#B2B2B2" stroke-width="0.25" stroke-miterlimit="10" /><line x1="12mm" x2="140mm" y1="116.82352941176mm" y2="116.82352941176mm" fill="none" stroke="#B2B2B2" stroke-width="0.25" stroke-miterlimit="10" /><line x1="12mm" x2="140mm" y1="128.47058823529mm" y2="128.47058823529mm" fill="none" stroke="#B2B2B2" stroke-width="0.25" stroke-miterlimit="10" /><line x1="12mm" x2="140mm" y1="140.11764705882mm" y2="140.11764705882mm" fill="none" stroke="#B2B2B2" stroke-width="0.25" stroke-miterlimit="10" /><line x1="12mm" x2="140mm" y1="151.76470588235mm" y2="151.76470588235mm" fill="none" stroke="#B2B2B2" stroke-width="0.25" stroke-miterlimit="10" /><line x1="12mm" x2="140mm" y1="163.41176470588mm" y2="163.41176470588mm" fill="none" stroke="#B2B2B2" stroke-width="0.25" stroke-miterlimit="10" /><line x1="12mm" x2="140mm" y1="175.05882352941mm" y2="175.05882352941mm" fill="none" stroke="#B2B2B2" stroke-width="0.25" stroke-miterlimit="10" /><line x1="12mm" x2="140mm" y1="186.70588235294mm" y2="186.70588235294mm" fill="none" stroke="#B2B2B2" stroke-width="0.25" stroke-miterlimit="10" /><line x1="12mm" x2="140mm" y1="198.35294117647mm" y2="198.35294117647mm" fill="none" stroke="#B2B2B2" stroke-width="0.25" stroke-miterlimit="10" /></svg>