<?xml version="1.0" encoding="utf-8"?>
<!-- Generator: Adobe Illustrator 15.0.2, SVG Export Plug-In . SVG Version: 6.00 Build 0)  -->
<!DOCTYPE svg PUBLIC "-//W3C//DTD SVG 1.1//EN" "http://www.w3.org/Graphics/SVG/1.1/DTD/svg11.dtd">
<svg version="1.1" id="Layer_1" xmlns="http://www.w3.org/2000/svg" xmlns:xlink="http://www.w3.org/1999/xlink" x="0px" y="0px"
	 width="841.891px" height="595.275px" viewBox="0 0 841.891 595.275" enable-background="new 0 0 841.891 595.275"
	 xml:space="preserve">
<text transform="matrix(1 0 0 1 447.8748 142.8655)" font-family="'Futura-Medium'" font-size="48">#WEEKNOTES</text>
<text transform="matrix(1 0 0 1 578.3289 170.0784)" font-family="'Futura-Medium'" font-size="12">Q1 204-215</text>
<line fill="none" stroke="#B2B2B2" stroke-width="0.25" stroke-miterlimit="10" x1="34.015" y1="34.016" x2="396.85" y2="34.016"/>
<line fill="none" stroke="#B2B2B2" stroke-width="0.25" stroke-miterlimit="10" x1="34.015" y1="67.031" x2="396.85" y2="67.031"/>
<line fill="none" stroke="#B2B2B2" stroke-width="0.25" stroke-miterlimit="10" x1="34.015" y1="100.046" x2="396.85" y2="100.046"/>
<line fill="none" stroke="#B2B2B2" stroke-width="0.25" stroke-miterlimit="10" x1="34.015" y1="133.062" x2="396.85" y2="133.062"/>
<line fill="none" stroke="#B2B2B2" stroke-width="0.25" stroke-miterlimit="10" x1="34.015" y1="166.076" x2="396.85" y2="166.076"/>
<line fill="none" stroke="#B2B2B2" stroke-width="0.25" stroke-miterlimit="10" x1="34.015" y1="199.092" x2="396.85" y2="199.092"/>
<line fill="none" stroke="#B2B2B2" stroke-width="0.25" stroke-miterlimit="10" x1="34.015" y1="232.108" x2="396.85" y2="232.108"/>
<line fill="none" stroke="#B2B2B2" stroke-width="0.25" stroke-miterlimit="10" x1="34.015" y1="265.122" x2="396.85" y2="265.122"/>
<line fill="none" stroke="#B2B2B2" stroke-width="0.25" stroke-miterlimit="10" x1="34.015" y1="298.138" x2="396.85" y2="298.138"/>
<line fill="none" stroke="#B2B2B2" stroke-width="0.25" stroke-miterlimit="10" x1="34.015" y1="331.153" x2="396.85" y2="331.153"/>
<line fill="none" stroke="#B2B2B2" stroke-width="0.25" stroke-miterlimit="10" x1="34.015" y1="364.168" x2="396.85" y2="364.168"/>
<line fill="none" stroke="#B2B2B2" stroke-width="0.25" stroke-miterlimit="10" x1="34.015" y1="397.184" x2="396.85" y2="397.184"/>
<line fill="none" stroke="#B2B2B2" stroke-width="0.25" stroke-miterlimit="10" x1="34.015" y1="430.198" x2="396.85" y2="430.198"/>
<line fill="none" stroke="#B2B2B2" stroke-width="0.25" stroke-miterlimit="10" x1="34.015" y1="463.214" x2="396.85" y2="463.214"/>
<line fill="none" stroke="#B2B2B2" stroke-width="0.25" stroke-miterlimit="10" x1="34.015" y1="496.23" x2="396.85" y2="496.23"/>
<line fill="none" stroke="#B2B2B2" stroke-width="0.25" stroke-miterlimit="10" x1="34.015" y1="529.244" x2="396.85" y2="529.244"/>
<line fill="none" stroke="#B2B2B2" stroke-width="0.25" stroke-miterlimit="10" x1="34.015" y1="562.26" x2="396.85" y2="562.26"/>
</svg>
